<svg width="81" height="151" viewBox="0 0 81 151" fill="none" xmlns="http://www.w3.org/2000/svg">
<g clip-path="url(#clip0_5037_144)">
<mask id="path-1-inside-1_5037_144" fill="white">
<path fill-rule="evenodd" clip-rule="evenodd" d="M6.20387 0C10.8557 0 14 5.34812 14 10V10V45C14 56.0457 22.9543 65 34 65H71C76.5228 65 81 69.4772 81 75V131C81 142.046 72.0457 151 61 151H-548C-559.046 151 -568 142.046 -568 131V20C-568 8.95431 -559.046 0 -548 0H6.20387Z"/>
</mask>
<path d="M15 45V10H13V45H15ZM34 64C23.5066 64 15 55.4934 15 45H13C13 56.598 22.402 66 34 66V64ZM71 64H34V66H71V64ZM80 75V131H82V75H80ZM80 131C80 141.493 71.4934 150 61 150V152C72.598 152 82 142.598 82 131H80ZM61 150H-548V152H61V150ZM-548 150C-558.493 150 -567 141.493 -567 131H-569C-569 142.598 -559.598 152 -548 152V150ZM-567 131V20H-569V131H-567ZM-567 20C-567 9.50659 -558.493 1 -548 1V-1C-559.598 -1 -569 8.40202 -569 20H-567ZM-548 1H6.20387V-1H-548V1ZM71 66C75.9706 66 80 70.0294 80 75H82C82 68.9249 77.0751 64 71 64V66ZM15 10C15 7.46844 14.1504 4.76506 12.6607 2.6751C11.1688 0.582205 8.94867 -1 6.20387 -1V1C8.11094 1 9.78884 2.09186 11.0321 3.83599C12.2774 5.58306 13 7.87969 13 10H15Z" fill="white" mask="url(#path-1-inside-1_5037_144)"/>
</g>
<defs>
<clipPath id="clip0_5037_144">
<rect width="81" height="151" fill="white"/>
</clipPath>
</defs>
</svg>
