<svg width="68" height="71" viewBox="0 0 68 71" fill="none" xmlns="http://www.w3.org/2000/svg">
<g clip-path="url(#clip0_5001_141)">
<path fill-rule="evenodd" clip-rule="evenodd" d="M-1576 10C-1576 4.47715 -1571.52 0 -1566 0H334C339.523 0 344 4.47715 344 10V94.99C344 94.9955 343.996 95 343.99 95V95C343.985 95 343.98 94.9957 343.98 94.9903C343.45 81.6513 332.469 71 319 71H60.519C55.4555 71 51.2962 67.1673 49.8122 62.3261C43.5424 41.8723 24.508 27 2 27H-1025C-1047.51 27 -1066.54 41.8723 -1072.81 62.3261C-1074.3 67.1673 -1078.46 71 -1083.52 71H-1551C-1564.47 71 -1575.45 81.6513 -1575.98 94.9903C-1575.98 94.9957 -1575.98 95 -1575.99 95V95C-1576 95 -1576 94.9955 -1576 94.99V10Z" fill="#7027E2"/>
</g>
<defs>
<clipPath id="clip0_5001_141">
<rect width="68" height="71" fill="white"/>
</clipPath>
</defs>
</svg>
